<?xml version="1.0" encoding="UTF-8" standalone="no"?><!-- Generator: Gravit.io --><svg xmlns="http://www.w3.org/2000/svg" xmlns:xlink="http://www.w3.org/1999/xlink" style="isolation:isolate" viewBox="0 0 127 142" width="127pt" height="142pt"><g><linearGradient id="_lgradient_2" x1="0.08499999999999991" y1="0.9354838709677419" x2="0.94" y2="0.07661290322580638" gradientTransform="matrix(143.446,-52.491,58.383,161.27,-45.393,16.611)" gradientUnits="userSpaceOnUse"><stop offset="0%" stop-opacity="1" style="stop-color:rgb(72,140,242)"/><stop offset="98.33333333333333%" stop-opacity="1" style="stop-color:rgb(110,122,255)"/></linearGradient><path d=" M 33.979 47.816 L 85.284 29.041 C 93.007 26.215 96.995 17.617 94.184 9.853 L 94.184 9.853 C 91.373 2.089 82.821 -1.92 75.099 0.906 L 9.8 24.8 L 9.8 24.8 L 9.8 24.8 C 2.078 27.626 -1.91 36.224 0.901 43.988 L 0.901 43.988 C 0.958 44.145 1.017 44.301 1.078 44.454 C 1.129 44.612 1.183 44.769 1.24 44.926 L 16.858 88.068 L 16.858 88.068 L 16.858 88.068 L 16.858 88.068 L 16.858 88.068 L 31.967 129.802 C 32.11 130.198 32.269 130.584 32.449 130.953 L 32.449 130.953 C 32.547 131.353 32.673 131.751 32.816 132.147 L 32.816 132.147 C 35.627 139.911 44.179 143.92 51.901 141.094 L 84.55 129.147 C 92.273 126.321 96.261 117.723 93.45 109.959 L 93.45 109.959 C 90.639 102.195 82.087 98.185 74.365 101.011 L 55.708 107.838 L 49.936 91.895 L 101.242 73.121 C 108.965 70.295 112.952 61.697 110.142 53.932 L 110.142 53.932 C 107.331 46.168 98.779 42.159 91.056 44.985 L 39.75 63.759 L 33.979 47.816 Z " fill-rule="evenodd" fill="url(#_lgradient_2)"/><path d=" M 98.114 108.252 C 95.303 100.488 99.291 91.89 107.014 89.064 C 114.737 86.238 123.288 90.247 126.099 98.012 C 128.91 105.776 124.922 114.374 117.2 117.2 C 109.477 120.026 100.925 116.016 98.114 108.252 Z " fill="rgb(72,140,242)"/></g></svg>